<svg width="1440" height="1024" viewBox="0 0 1440 1024" fill="none" xmlns="http://www.w3.org/2000/svg">
<rect width="1440" height="1024" fill="#F5F5F5"/>
<g clip-path="url(#clip0_0_1)">
<rect width="1440" height="1024" fill="white"/>
<ellipse cx="25.0506" cy="780.79" rx="888.279" ry="898" transform="rotate(-10.739 25.0506 780.79)" fill="url(#paint0_linear_0_1)"/>
<g clip-path="url(#clip1_0_1)">
<path d="M1118.81 349.555H886.278C871.147 349.555 858.881 362.189 858.881 377.773V614.224C858.881 629.808 871.147 642.442 886.278 642.442H1118.81C1133.94 642.442 1146.21 629.808 1146.21 614.224V377.773C1146.21 362.189 1133.94 349.555 1118.81 349.555Z" fill="#F2F2F2"/>
<path d="M935.109 355.358C916.387 355.358 898.431 363.018 885.192 376.654C871.953 390.29 864.515 408.783 864.515 428.067V614.224C864.515 617.167 865.078 620.082 866.172 622.802C867.266 625.521 868.869 627.992 870.89 630.074C872.91 632.155 875.309 633.806 877.95 634.932C880.59 636.059 883.42 636.639 886.278 636.639H1034.69C1062.77 636.639 1089.7 625.148 1109.56 604.696C1129.42 584.243 1140.57 556.503 1140.57 527.579V377.773C1140.57 371.828 1138.28 366.127 1134.2 361.923C1130.12 357.72 1124.58 355.358 1118.81 355.358H935.109Z" fill="white"/>
<path d="M847.519 221.213C852.304 221.213 856.182 217.129 856.182 212.092C856.182 207.054 852.304 202.97 847.519 202.97C842.735 202.97 838.856 207.054 838.856 212.092C838.856 217.129 842.735 221.213 847.519 221.213Z" fill="#E6E6E6"/>
<path d="M877.446 221.213C882.231 221.213 886.109 217.129 886.109 212.092C886.109 207.054 882.231 202.97 877.446 202.97C872.662 202.97 868.783 207.054 868.783 212.092C868.783 217.129 872.662 221.213 877.446 221.213Z" fill="#E6E6E6"/>
<path d="M907.373 221.213C912.157 221.213 916.036 217.129 916.036 212.092C916.036 207.054 912.157 202.97 907.373 202.97C902.589 202.97 898.71 207.054 898.71 212.092C898.71 217.129 902.589 221.213 907.373 221.213Z" fill="#E6E6E6"/>
<path d="M941.498 219.301C941.361 219.301 941.226 219.273 941.1 219.219C940.974 219.164 940.861 219.084 940.765 218.984L934.92 212.829C934.733 212.632 934.628 212.367 934.628 212.091C934.628 211.816 934.733 211.551 934.92 211.354L940.765 205.2C940.859 205.099 940.971 205.019 941.095 204.963C941.219 204.907 941.353 204.877 941.488 204.875C941.624 204.873 941.758 204.898 941.884 204.95C942.01 205.002 942.124 205.078 942.221 205.176C942.318 205.273 942.395 205.39 942.448 205.518C942.5 205.646 942.528 205.784 942.529 205.924C942.53 206.063 942.504 206.201 942.452 206.33C942.401 206.459 942.325 206.577 942.23 206.675L937.085 212.091L942.23 217.508C942.371 217.657 942.466 217.845 942.504 218.049C942.542 218.253 942.52 218.464 942.442 218.655C942.364 218.846 942.232 219.01 942.064 219.125C941.896 219.24 941.699 219.301 941.498 219.301V219.301Z" fill="#E6E6E6"/>
<path d="M951.32 219.301C951.118 219.301 950.921 219.24 950.753 219.125C950.585 219.01 950.454 218.846 950.376 218.655C950.298 218.464 950.276 218.253 950.314 218.049C950.351 217.845 950.447 217.657 950.588 217.508L955.732 212.091L950.588 206.675C950.492 206.577 950.416 206.459 950.365 206.33C950.314 206.201 950.288 206.063 950.289 205.924C950.289 205.784 950.317 205.646 950.37 205.518C950.423 205.39 950.5 205.273 950.597 205.176C950.693 205.078 950.808 205.002 950.934 204.95C951.06 204.898 951.194 204.873 951.329 204.875C951.465 204.877 951.598 204.907 951.722 204.963C951.846 205.019 951.959 205.099 952.052 205.2L957.897 211.354C958.084 211.551 958.189 211.816 958.189 212.091C958.189 212.367 958.084 212.632 957.897 212.829L952.052 218.984C951.957 219.084 951.843 219.164 951.717 219.219C951.592 219.273 951.456 219.301 951.32 219.301Z" fill="#E6E6E6"/>
<path d="M1347.26 204.026H1336.4C1336.1 204.026 1335.81 204.086 1335.54 204.202C1335.27 204.318 1335.02 204.488 1334.81 204.703C1334.6 204.917 1334.44 205.172 1334.32 205.453C1334.21 205.733 1334.15 206.033 1334.15 206.337V217.542C1334.15 217.846 1334.21 218.146 1334.32 218.426C1334.44 218.707 1334.6 218.962 1334.81 219.176C1335.02 219.391 1335.27 219.561 1335.54 219.677C1335.81 219.793 1336.1 219.853 1336.4 219.853H1347.26C1347.86 219.853 1348.43 219.61 1348.86 219.177C1349.28 218.744 1349.52 218.156 1349.52 217.542V206.337C1349.52 205.723 1349.28 205.135 1348.86 204.702C1348.43 204.269 1347.86 204.026 1347.26 204.026Z" fill="white"/>
<path d="M1320.63 204.026H1309.76C1309.47 204.026 1309.17 204.086 1308.9 204.202C1308.63 204.318 1308.38 204.488 1308.17 204.703C1307.97 204.917 1307.8 205.172 1307.69 205.453C1307.58 205.733 1307.52 206.033 1307.52 206.337V217.542C1307.52 217.846 1307.58 218.146 1307.69 218.426C1307.8 218.707 1307.97 218.962 1308.17 219.176C1308.38 219.391 1308.63 219.561 1308.9 219.677C1309.17 219.793 1309.47 219.853 1309.76 219.853H1320.63C1321.23 219.853 1321.8 219.61 1322.22 219.177C1322.64 218.744 1322.88 218.156 1322.88 217.542V206.337C1322.88 205.723 1322.64 205.135 1322.22 204.702C1321.8 204.269 1321.23 204.026 1320.63 204.026Z" fill="white"/>
<path d="M1372.36 204.554H1361.49C1361.2 204.554 1360.91 204.613 1360.64 204.73C1360.36 204.846 1360.12 205.016 1359.91 205.23C1359.7 205.445 1359.53 205.7 1359.42 205.98C1359.31 206.26 1359.25 206.561 1359.25 206.864V218.07C1359.25 218.373 1359.31 218.674 1359.42 218.954C1359.53 219.234 1359.7 219.489 1359.91 219.704C1360.12 219.918 1360.36 220.089 1360.64 220.205C1360.91 220.321 1361.2 220.38 1361.49 220.38H1372.36C1372.96 220.381 1373.53 220.138 1373.95 219.705C1374.38 219.272 1374.61 218.684 1374.62 218.07V206.864C1374.61 206.251 1374.38 205.662 1373.95 205.229C1373.53 204.796 1372.96 204.553 1372.36 204.554V204.554Z" fill="white"/>
<path d="M1038.01 536.889H880.259C879.357 536.889 878.492 536.52 877.854 535.863C877.216 535.206 876.857 534.314 876.857 533.385C876.857 532.456 877.216 531.565 877.854 530.908C878.492 530.25 879.357 529.881 880.259 529.881H1038.01C1038.91 529.881 1039.78 530.25 1040.42 530.908C1041.05 531.565 1041.41 532.456 1041.41 533.385C1041.41 534.314 1041.05 535.206 1040.42 535.863C1039.78 536.52 1038.91 536.889 1038.01 536.889Z" fill="#F2F2F2"/>
<path d="M1038.01 436.947H800.402C799.955 436.948 799.512 436.858 799.099 436.682C798.685 436.506 798.31 436.248 797.993 435.923C797.677 435.597 797.425 435.211 797.254 434.785C797.083 434.36 796.995 433.904 796.995 433.443C796.995 432.983 797.083 432.526 797.254 432.101C797.425 431.675 797.677 431.289 797.993 430.963C798.31 430.638 798.685 430.38 799.099 430.204C799.512 430.029 799.955 429.939 800.402 429.939H1038.01C1038.91 429.941 1039.78 430.311 1040.41 430.968C1041.05 431.625 1041.41 432.515 1041.41 433.443C1041.41 434.371 1041.05 435.262 1040.41 435.919C1039.78 436.576 1038.91 436.945 1038.01 436.947V436.947Z" fill="#F2F2F2"/>
<path d="M1038.02 461.967H800.397C799.495 461.969 798.631 462.339 797.994 462.997C797.356 463.654 796.998 464.545 796.998 465.474C796.998 466.403 797.356 467.294 797.994 467.951C798.631 468.609 799.495 468.979 800.397 468.981H1038.02C1038.92 468.979 1039.78 468.609 1040.42 467.951C1041.06 467.294 1041.41 466.403 1041.41 465.474C1041.41 464.545 1041.06 463.654 1040.42 462.997C1039.78 462.339 1038.92 461.969 1038.02 461.967V461.967Z" fill="#F2F2F2"/>
<path d="M1038.01 501.014H800.402C799.5 501.014 798.635 500.645 797.997 499.987C797.359 499.33 797.001 498.439 797.001 497.51C797.001 496.581 797.359 495.689 797.997 495.032C798.635 494.375 799.5 494.006 800.402 494.006H1038.01C1038.91 494.006 1039.78 494.375 1040.42 495.032C1041.05 495.689 1041.41 496.581 1041.41 497.51C1041.41 498.439 1041.05 499.33 1040.42 499.987C1039.78 500.645 1038.91 501.014 1038.01 501.014V501.014Z" fill="#F2F2F2"/>
<path d="M1238.09 780.949L1227.18 780.948L1222 737.612L1238.1 737.613L1238.09 780.949Z" fill="#FFB9B9"/>
<path d="M1238.48 792.67L1204.93 792.669V792.232C1204.93 788.666 1206.31 785.245 1208.76 782.723C1211.2 780.202 1214.53 778.785 1217.99 778.785H1217.99L1224.12 773.997L1235.55 778.785L1238.48 778.785L1238.48 792.67Z" fill="#2F2E41"/>
<path d="M1347.85 780.949L1336.94 780.948L1331.75 737.612L1347.85 737.613L1347.85 780.949Z" fill="#FFB8B8"/>
<path d="M1348.24 792.67L1314.69 792.669V792.232C1314.69 788.666 1316.07 785.245 1318.52 782.723C1320.96 780.202 1324.28 778.785 1327.75 778.785H1327.75L1333.88 773.997L1345.31 778.785L1348.24 778.785L1348.24 792.67Z" fill="#2F2E41"/>
<path d="M1246.99 531.981C1246.99 531.981 1239.83 539.812 1239.53 544.893C1239.22 549.974 1242.96 540.745 1239.22 549.974C1235.49 559.202 1235.49 553.05 1235.49 559.202C1235.49 565.354 1227.58 571.362 1227.58 571.362L1214.53 626.641L1222.05 756.074H1238.48C1253.74 708.146 1260.84 671.135 1252.66 654.562L1275.48 602.339C1275.48 602.339 1318.58 741.264 1320.34 742.901C1322.1 744.538 1322.1 742.231 1322.1 744.538C1322.1 746.845 1319.86 744.538 1322.1 746.845L1332.56 757.612L1348.24 756.074C1348.24 756.074 1350.33 655.491 1332.86 638.108C1332.86 638.108 1336.89 584.278 1332.86 584.429C1328.82 584.58 1328.82 591.501 1328.82 584.58C1328.82 577.659 1333.61 575.812 1333.61 575.812L1320.17 527.196L1246.99 531.981Z" fill="#2F2E41"/>
<path d="M1331.63 424.822L1316.45 490.291L1320.04 514.643L1324.34 543.816L1309.46 542.824L1286.45 541.284L1243.71 538.435L1239.97 409.238L1259.58 388.136L1263.08 377.891L1291.42 377.711L1298.21 390.014L1315.64 395.121C1317.88 396.585 1319.99 398.26 1321.93 400.122C1326.23 404.226 1330.04 409.438 1331.83 414.777C1332.36 416.333 1332.7 417.954 1332.84 419.599L1331.63 424.822Z" fill="#E6E6E6"/>
<path d="M1199.69 590.934C1200.83 590.284 1201.82 589.386 1202.6 588.302C1203.37 587.219 1203.9 585.975 1204.16 584.658C1204.42 583.341 1204.4 581.981 1204.1 580.673C1203.8 579.365 1203.23 578.14 1202.42 577.083L1224.04 536.539L1214.62 527.622L1189.29 575.97C1187.66 577.499 1186.63 579.59 1186.4 581.846C1186.17 584.102 1186.75 586.367 1188.03 588.212C1189.32 590.056 1191.21 591.352 1193.36 591.854C1195.51 592.356 1197.76 592.029 1199.69 590.934V590.934Z" fill="#E6E6E6"/>
<path d="M1252.43 401.339L1247.39 494.331L1223.11 552.769L1207.3 574.355L1209.1 564.574L1198.2 558.96L1197.18 558.437L1218.09 474.843L1220.02 442.359C1220.35 436.769 1221.81 431.311 1224.29 426.33C1226.78 421.349 1230.24 416.953 1234.46 413.421L1246.56 403.3L1252.43 401.339Z" fill="#E6E6E6"/>
<path d="M1199.69 590.934C1200.83 590.284 1201.82 589.386 1202.6 588.302C1203.37 587.219 1203.9 585.975 1204.16 584.658C1204.42 583.341 1204.4 581.981 1204.1 580.673C1203.8 579.365 1203.23 578.14 1202.42 577.083L1224.04 536.539L1214.62 527.622L1189.29 575.97C1187.66 577.499 1186.63 579.59 1186.4 581.846C1186.17 584.102 1186.75 586.367 1188.03 588.212C1189.32 590.056 1191.21 591.352 1193.36 591.854C1195.51 592.356 1197.76 592.029 1199.69 590.934V590.934Z" fill="#A0616A"/>
<path d="M1252.43 401.339L1247.39 494.331L1223.11 552.769L1207.3 574.355L1209.1 564.574L1198.2 558.96L1197.18 558.437L1218.09 474.843L1220.02 442.359C1220.35 436.769 1221.81 431.311 1224.29 426.33C1226.78 421.349 1230.24 416.953 1234.46 413.421L1246.56 403.3L1252.43 401.339Z" fill="#E6E6E6"/>
<path d="M1275.83 404.545H1043.3C1028.16 404.545 1015.9 417.179 1015.9 432.763V556.318C1015.9 571.902 1028.16 584.536 1043.3 584.536H1275.83C1290.96 584.536 1303.23 571.902 1303.23 556.318V432.763C1303.23 417.179 1290.96 404.545 1275.83 404.545Z" fill="white"/>
<path d="M1275.83 585.591H1043.3C1035.76 585.582 1028.54 582.495 1023.21 577.007C1017.88 571.519 1014.88 564.079 1014.87 556.318V432.763C1014.88 425.002 1017.88 417.561 1023.21 412.073C1028.54 406.586 1035.76 403.499 1043.3 403.49H1275.83C1283.36 403.499 1290.59 406.586 1295.92 412.074C1301.24 417.561 1304.24 425.002 1304.25 432.763V556.318C1304.24 564.079 1301.24 571.519 1295.92 577.007C1290.59 582.495 1283.36 585.582 1275.83 585.591V585.591ZM1043.3 405.6C1036.3 405.6 1029.59 408.462 1024.65 413.556C1019.7 418.65 1016.92 425.559 1016.92 432.763V478.944C1016.92 506.669 1027.62 533.258 1046.65 552.863C1065.68 572.467 1091.5 583.481 1118.42 583.481H1275.83C1282.82 583.481 1289.53 580.619 1294.48 575.525C1299.42 570.431 1302.2 563.522 1302.2 556.318V432.763C1302.2 429.196 1301.52 425.664 1300.19 422.368C1298.87 419.073 1296.93 416.078 1294.48 413.556C1292.03 411.034 1289.12 409.033 1285.92 407.668C1282.72 406.303 1279.29 405.6 1275.83 405.6L1043.3 405.6Z" fill="#3F3D56"/>
<path d="M1104.76 535.689H1050.46C1048.48 535.689 1046.88 537.343 1046.88 539.382C1046.88 541.422 1048.48 543.075 1050.46 543.075H1104.76C1106.74 543.075 1108.34 541.422 1108.34 539.382C1108.34 537.343 1106.74 535.689 1104.76 535.689Z" fill="#FFB9B9"/>
<path d="M1268.66 525.666H1230.76C1228.78 525.666 1227.17 527.319 1227.17 529.359V549.406C1227.17 551.445 1228.78 553.099 1230.76 553.099H1268.66C1270.64 553.099 1272.25 551.445 1272.25 549.406V529.359C1272.25 527.319 1270.64 525.666 1268.66 525.666Z" fill="#FF6584"/>
<path d="M1065.32 473.966C1075.5 473.966 1083.76 465.463 1083.76 454.974C1083.76 444.485 1075.5 435.982 1065.32 435.982C1055.13 435.982 1046.88 444.485 1046.88 454.974C1046.88 465.463 1055.13 473.966 1065.32 473.966Z" fill="#FFE7F8"/>
<path d="M1276.22 372.274C1289 372.274 1299.37 361.597 1299.37 348.427C1299.37 335.256 1289 324.58 1276.22 324.58C1263.43 324.58 1253.06 335.256 1253.06 348.427C1253.06 361.597 1263.43 372.274 1276.22 372.274Z" fill="#FFB8B8"/>
<path d="M1295.21 360.753C1295.39 362.177 1292.89 362.328 1292.32 361.014C1291.76 359.7 1292.49 358.211 1293.2 356.975L1294.86 354.106C1295.17 353.566 1295.35 352.957 1295.38 352.33C1295.42 351.703 1295.31 351.077 1295.06 350.502C1294.82 349.928 1294.44 349.422 1293.97 349.028C1293.49 348.634 1292.93 348.362 1292.33 348.236C1293.85 344.735 1292.21 340.365 1289.19 338.116C1286.18 335.867 1281.7 340.075 1278.05 340.797C1274.4 341.519 1271.47 338.639 1268.14 340.346L1270.14 335.596L1259.07 340.51L1261.64 335.167C1258.85 335.323 1257.66 338.829 1257.1 341.655C1256.51 344.665 1254.95 348.428 1251.77 347.804C1251.02 347.631 1250.33 347.242 1249.78 346.683C1249.23 346.123 1248.85 345.415 1248.67 344.641C1246.22 334.891 1253.34 324.231 1262.79 322.521C1263.8 319.648 1265.68 317.183 1268.15 315.488C1270.62 313.793 1273.55 312.957 1276.52 313.103C1279.48 313.248 1282.32 314.367 1284.62 316.296C1286.92 318.225 1288.57 320.862 1289.31 323.821L1292.4 319.915L1293.01 325.45C1295.23 325.206 1297.34 326.825 1298.42 328.844C1299.5 330.863 1298.99 333.469 1300.03 335.512C1304.68 344.667 1303.14 354.974 1295.96 361.996" fill="#2F2E41"/>
<path d="M1376.42 776.712C1376.89 776.735 1377.36 776.606 1377.77 776.343C1378.17 776.081 1378.48 775.697 1378.67 775.244C1378.85 774.791 1378.9 774.291 1378.79 773.811C1378.69 773.331 1378.45 772.895 1378.1 772.562L1377.94 771.91C1377.96 771.857 1377.98 771.805 1378.01 771.753C1378.49 770.586 1379.29 769.591 1380.32 768.893C1381.34 768.195 1382.55 767.825 1383.78 767.83C1385.01 767.835 1386.21 768.214 1387.23 768.92C1388.25 769.625 1389.05 770.627 1389.52 771.797C1391.4 776.469 1393.8 781.149 1394.39 786.09C1394.65 788.273 1394.54 790.487 1394.07 792.632C1398.49 782.693 1400.79 771.89 1400.8 760.957C1400.81 758.213 1400.66 755.472 1400.36 752.745C1400.12 750.51 1399.78 748.29 1399.34 746.087C1396.97 734.131 1391.88 722.925 1384.49 713.39C1380.91 711.379 1378.02 708.287 1376.2 704.53C1375.54 703.18 1375.07 701.739 1374.81 700.251C1375.22 700.305 1376.34 693.974 1376.03 693.586C1376.59 692.707 1377.6 692.27 1378.22 691.412C1381.27 687.146 1385.48 687.891 1387.68 693.688C1392.37 696.128 1392.42 700.175 1389.54 704.067C1387.7 706.543 1387.45 709.894 1385.84 712.545C1386.01 712.763 1386.18 712.974 1386.35 713.192C1389.37 717.197 1392.01 721.497 1394.22 726.031C1393.68 720.952 1394.32 715.813 1396.09 711.039C1397.88 706.589 1401.23 702.841 1404.19 698.995C1404.97 697.961 1406.03 697.19 1407.24 696.778C1408.45 696.366 1409.75 696.332 1410.97 696.68C1412.2 697.028 1413.3 697.743 1414.13 698.734C1414.96 699.725 1415.49 700.948 1415.65 702.248C1415.65 702.304 1415.66 702.361 1415.67 702.418C1415.23 702.673 1414.8 702.944 1414.38 703.23C1413.85 703.594 1413.44 704.113 1413.2 704.72C1412.96 705.328 1412.91 705.994 1413.05 706.633C1413.19 707.272 1413.51 707.853 1413.97 708.301C1414.44 708.748 1415.02 709.041 1415.65 709.141L1415.71 709.151C1415.56 710.781 1415.28 712.396 1414.88 713.983C1418.68 729.087 1410.49 734.589 1398.8 734.836C1398.54 734.972 1398.29 735.108 1398.03 735.238C1400.25 741.717 1401.64 748.465 1402.17 755.314C1402.47 759.355 1402.46 763.414 1402.12 767.451L1402.14 767.308C1402.99 762.818 1405.31 758.767 1408.72 755.839C1413.79 751.552 1420.95 749.974 1426.41 746.528C1427 746.144 1427.67 745.939 1428.36 745.937C1429.05 745.936 1429.73 746.137 1430.31 746.518C1430.89 746.9 1431.36 747.445 1431.65 748.089C1431.94 748.733 1432.05 749.45 1431.96 750.155L1431.94 750.305C1431.12 750.647 1430.33 751.041 1429.56 751.484C1429.12 751.739 1428.69 752.01 1428.27 752.296C1427.74 752.66 1427.33 753.179 1427.1 753.787C1426.86 754.394 1426.81 755.061 1426.94 755.7C1427.08 756.338 1427.4 756.92 1427.87 757.367C1428.33 757.814 1428.91 758.107 1429.54 758.207L1429.61 758.217C1429.65 758.224 1429.69 758.231 1429.74 758.238C1428.35 761.661 1426.39 764.812 1423.96 767.553C1421.59 780.739 1411.41 781.99 1400.51 778.15H1400.51C1399.31 783.5 1397.58 788.707 1395.34 793.688H1376.88C1376.81 793.477 1376.75 793.259 1376.69 793.047C1378.4 793.158 1380.12 793.053 1381.8 792.734C1380.43 791.003 1379.06 789.258 1377.69 787.527C1377.66 787.495 1377.63 787.461 1377.61 787.425C1376.91 786.539 1376.21 785.66 1375.52 784.774L1375.52 784.773C1375.48 782.058 1375.78 779.348 1376.42 776.712L1376.42 776.712Z" fill="#F2F2F2"/>
<path d="M1286.08 585.291C1287.2 584.599 1288.16 583.666 1288.89 582.554C1289.62 581.443 1290.12 580.181 1290.33 578.855C1290.54 577.529 1290.48 576.171 1290.13 574.875C1289.78 573.579 1289.17 572.375 1288.33 571.348L1308.54 530.039L1298.82 521.473L1275.16 570.716C1273.59 572.304 1272.64 574.431 1272.48 576.695C1272.33 578.958 1272.99 581.2 1274.33 582.997C1275.68 584.793 1277.62 586.019 1279.78 586.442C1281.95 586.865 1284.19 586.455 1286.08 585.291V585.291Z" fill="#A0616A"/>
<path d="M1331.83 414.777L1332.84 419.599L1330.41 486.999L1320.04 514.643L1309.46 542.824L1308.16 546.296L1293.11 568.442L1294.57 558.598L1283.48 553.386L1282.45 552.911L1286.45 541.284L1295.63 514.569L1299.61 503.005L1300.47 468.598L1301.27 436.069C1301.41 430.471 1302.67 424.963 1304.98 419.894C1307.3 414.825 1310.6 410.306 1314.7 406.621L1321.93 400.122C1326.23 404.226 1330.04 409.438 1331.83 414.777Z" fill="#E6E6E6"/>
<path d="M1090.06 583.153L1042.03 582.098C1036.06 582.089 1030.33 579.64 1026.11 575.289C1021.89 570.937 1019.51 565.038 1019.5 558.886L1017.46 507.173C1023.35 549.333 1046.01 576.076 1090.06 583.153Z" fill="#3F3D56"/>
<g clip-path="url(#clip2_0_1)">
<path d="M1261.07 515.368H1254.64V521H1261.07V515.368Z" fill="#F0F0F0"/>
<path d="M1290 461.305C1290 469.797 1287.7 478.133 1283.34 485.438C1278.98 492.743 1272.72 498.747 1265.21 502.821C1264.79 503.052 1264.36 503.277 1263.92 503.495C1262.32 504.308 1260.66 505.028 1258.97 505.65C1258.3 505.902 1257.62 506.136 1256.93 506.352C1256.87 506.375 1256.8 506.397 1256.73 506.416C1250.01 508.537 1242.89 509.144 1235.89 508.193C1228.9 507.242 1222.2 504.758 1216.3 500.92C1215.5 500.405 1214.73 499.868 1213.97 499.309C1213.54 498.992 1213.12 498.669 1212.7 498.337C1211.52 497.406 1210.38 496.419 1209.3 495.376C1204.67 490.969 1201 485.678 1198.49 479.822C1195.98 473.967 1194.69 467.668 1194.7 461.305C1194.7 435.178 1216.03 414 1242.35 414C1268.67 414 1290 435.178 1290 461.305Z" fill="#F2F2F2"/>
<path d="M1253.73 483.381L1252.65 487.413L1256.73 506.416C1245.77 509.844 1233.93 509.24 1223.38 504.713L1226.56 491.459L1226.67 484.269L1227.01 460.562L1227.1 460.517C1227.11 460.514 1227.11 460.511 1227.12 460.509L1235.23 456.374L1249.23 456.027L1259.67 461.076L1259.59 461.371L1253.73 483.381Z" fill="#3F3D56"/>
<path d="M1259.45 518.023C1259.13 517.644 1258.9 517.198 1258.77 516.719C1258.64 516.24 1258.62 515.739 1258.7 515.25C1258.79 514.761 1258.98 514.298 1259.27 513.892C1259.56 513.486 1259.93 513.147 1260.36 512.9L1258.09 501.053L1263.92 503.464L1265.18 514.344C1265.55 515.094 1265.63 515.952 1265.41 516.757C1265.18 517.562 1264.67 518.257 1263.96 518.711C1263.26 519.164 1262.41 519.345 1261.58 519.218C1260.74 519.092 1259.99 518.666 1259.45 518.023V518.023Z" fill="#9E616A"/>
<path d="M1257.56 461.445L1259.06 460.962C1259.06 460.962 1263.8 463.984 1263.35 471.289C1263.35 471.289 1263.53 475.069 1263.36 477.585C1263.16 480.47 1265.77 509.146 1265.77 509.146H1257.32L1253.7 483.178L1257.56 461.445Z" fill="#3F3D56"/>
<path d="M1252.66 443.065C1252.66 444.97 1252.09 446.832 1251.03 448.416C1249.96 450 1248.45 451.234 1246.67 451.963C1244.9 452.692 1242.95 452.883 1241.07 452.512C1239.19 452.14 1237.46 451.223 1236.1 449.875C1234.74 448.528 1233.82 446.812 1233.44 444.944C1233.07 443.075 1233.26 441.139 1234 439.379C1234.73 437.618 1235.97 436.114 1237.57 435.056C1239.17 433.997 1241.04 433.432 1242.96 433.432H1242.96C1244.23 433.429 1245.49 433.675 1246.67 434.155C1247.84 434.635 1248.91 435.34 1249.81 436.23C1250.71 437.12 1251.43 438.177 1251.92 439.342C1252.41 440.506 1252.66 441.755 1252.66 443.017C1252.66 443.033 1252.66 443.049 1252.66 443.065Z" fill="#FFB8B8"/>
<path d="M1233.29 430.127C1234.43 427.701 1236.63 428.18 1238.55 429.003C1240.99 428.466 1243.3 426.86 1245.93 427.81C1248.51 431.543 1257.19 430.445 1255.35 436.522C1255.34 437.978 1258.11 437.131 1257.62 439.516C1259.09 444.106 1252.34 452.799 1248.47 450.968C1249.43 449.225 1251.62 445.267 1248.3 444.875C1241.16 451.469 1247.56 432.318 1238.59 437.887C1235.62 440.586 1231.55 432.826 1233.29 430.127Z" fill="#2F2E41"/>
<path d="M1248.14 507.391L1232.65 504.346L1236.62 484.44C1242.1 486.498 1247.26 487.513 1252.11 487.486C1247.87 493.65 1245.95 500.27 1248.14 507.391Z" fill="#E4E4E4"/>
<path d="M1245.89 508.56L1230.4 505.515C1229.13 496.497 1230.28 489.708 1234.37 485.61C1239.85 487.667 1245.01 488.682 1249.86 488.655C1247.3 494.987 1245.95 501.738 1245.89 508.56V508.56Z" fill="#FF6584"/>
<path d="M1235.62 503.016C1235.56 502.523 1235.39 502.05 1235.13 501.63C1234.86 501.21 1234.51 500.852 1234.09 500.583C1233.67 500.313 1233.19 500.139 1232.7 500.071C1232.2 500.003 1231.7 500.044 1231.22 500.19L1224.03 490.473L1221.84 496.35L1229.01 504.677C1229.31 505.457 1229.89 506.101 1230.63 506.485C1231.38 506.87 1232.24 506.969 1233.06 506.764C1233.88 506.559 1234.59 506.065 1235.06 505.374C1235.53 504.683 1235.73 503.844 1235.62 503.016Z" fill="#9E616A"/>
<path d="M1229.18 461.075L1227.87 460.201C1227.87 460.201 1220.12 460.918 1218.52 468.063C1218.52 468.063 1217.36 472.356 1216.82 474.821C1216.55 476.089 1212.87 488.337 1212.87 488.337L1225.33 501.853L1228.74 496.784L1225.33 488.337L1229.18 461.075Z" fill="#3F3D56"/>
<path d="M1161.94 512.674C1161.75 512.674 1161.57 512.75 1161.43 512.883C1161.3 513.017 1161.22 513.199 1161.22 513.388C1161.22 513.577 1161.3 513.758 1161.43 513.892C1161.57 514.026 1161.75 514.101 1161.94 514.101H1214.4C1214.59 514.101 1214.78 514.025 1214.91 513.892C1215.05 513.758 1215.12 513.577 1215.12 513.388C1215.12 513.199 1215.05 513.018 1214.91 512.884C1214.78 512.75 1214.59 512.675 1214.4 512.674H1161.94Z" fill="#E4E4E4"/>
<path d="M1161.94 516.955C1161.85 516.954 1161.75 516.972 1161.67 517.008C1161.58 517.044 1161.5 517.096 1161.43 517.162C1161.36 517.228 1161.31 517.307 1161.28 517.393C1161.24 517.48 1161.22 517.573 1161.22 517.666C1161.22 517.76 1161.24 517.853 1161.27 517.94C1161.31 518.026 1161.36 518.105 1161.43 518.171C1161.5 518.238 1161.58 518.291 1161.66 518.327C1161.75 518.363 1161.84 518.381 1161.94 518.381H1195.11C1195.3 518.381 1195.48 518.306 1195.61 518.172C1195.75 518.039 1195.82 517.857 1195.82 517.668C1195.82 517.479 1195.75 517.297 1195.61 517.164C1195.48 517.03 1195.3 516.955 1195.11 516.955H1161.94Z" fill="#E4E4E4"/>
<path d="M1151.87 518.094C1153.33 518.094 1154.52 516.917 1154.52 515.466C1154.52 514.014 1153.33 512.838 1151.87 512.838C1150.41 512.838 1149.23 514.014 1149.23 515.466C1149.23 516.917 1150.41 518.094 1151.87 518.094Z" fill="#FF58D0"/>
</g>
</g>
<path d="M1213.29 282.015H1203.9C1203.17 282.047 1202.47 282.282 1201.88 282.693C1201.29 283.103 1200.83 283.672 1200.56 284.331L1198.43 290.339L1196.72 294.991L1194.33 301.729C1194.09 302.533 1193.75 303.309 1193.33 304.045C1192.9 303.307 1192.56 302.523 1192.31 301.708L1190.03 295.012C1189.58 293.718 1188.84 291.632 1188.37 290.339L1186.24 284.331C1185.97 283.669 1185.5 283.098 1184.9 282.687C1184.31 282.276 1183.6 282.043 1182.87 282.015H1146.74C1146.41 282.015 1146.09 282.079 1145.78 282.202C1145.48 282.326 1145.2 282.508 1144.96 282.736C1144.73 282.965 1144.55 283.236 1144.42 283.535C1144.29 283.833 1144.23 284.153 1144.23 284.477V298.516C1144.23 299.175 1143.96 299.806 1143.49 300.272C1143.01 300.737 1142.37 300.999 1141.69 300.999H1131.21C1130.54 300.993 1129.9 300.73 1129.43 300.266C1128.95 299.801 1128.68 299.173 1128.68 298.516V284.477C1128.68 283.842 1128.43 283.231 1127.98 282.772C1127.53 282.313 1126.92 282.042 1126.27 282.015H1117.54C1116.87 282.015 1116.22 282.274 1115.75 282.735C1115.28 283.196 1115.01 283.822 1115 284.477V290.965C1119.64 296.764 1119.64 307.32 1115 323.049V330.538C1115.01 331.193 1115.28 331.819 1115.75 332.28C1116.22 332.741 1116.87 333 1117.54 333H1126.27C1126.6 333 1126.93 332.936 1127.23 332.813C1127.54 332.689 1127.81 332.508 1128.05 332.279C1128.28 332.05 1128.47 331.779 1128.59 331.48C1128.72 331.182 1128.78 330.862 1128.78 330.538V315.226C1128.78 314.585 1129.04 313.969 1129.49 313.507C1129.94 313.044 1130.56 312.771 1131.21 312.744H1141.69C1142.36 312.738 1143 312.992 1143.48 313.45C1143.95 313.908 1144.22 314.532 1144.23 315.184L1144.23 315.205V330.517C1144.23 331.17 1144.49 331.796 1144.96 332.258C1145.44 332.72 1146.08 332.979 1146.74 332.979H1176.21C1176.87 332.979 1177.51 332.72 1177.98 332.258C1178.45 331.796 1178.72 331.17 1178.72 330.517V324.176C1178.72 323.523 1178.45 322.897 1177.98 322.435C1177.51 321.973 1176.87 321.714 1176.21 321.714H1160.57C1159.9 321.708 1159.26 321.445 1158.79 320.98C1158.32 320.515 1158.05 319.886 1158.05 319.232V315.059C1158.05 314.404 1158.32 313.776 1158.79 313.311C1159.26 312.846 1159.9 312.582 1160.57 312.577H1170.01C1170.67 312.577 1171.31 312.317 1171.78 311.856C1172.25 311.394 1172.52 310.768 1172.52 310.115V303.773C1172.52 303.12 1172.25 302.494 1171.78 302.033C1171.31 301.571 1170.67 301.312 1170.01 301.312H1160.57C1159.9 301.306 1159.26 301.042 1158.79 300.577C1158.32 300.112 1158.05 299.484 1158.05 298.829V295.784C1158.05 295.131 1158.31 294.502 1158.78 294.037C1159.24 293.571 1159.88 293.307 1160.55 293.301L1160.57 293.301H1173.35C1174.09 293.34 1174.81 293.569 1175.44 293.964C1176.06 294.359 1176.57 294.907 1176.91 295.554L1185.2 313.182C1185.85 314.675 1186.21 316.274 1186.26 317.896V330.538C1186.26 331.191 1186.53 331.817 1187 332.279C1187.47 332.741 1188.11 333 1188.77 333H1197.51C1198.18 333.005 1198.82 332.751 1199.29 332.294C1199.77 331.836 1200.04 331.212 1200.04 330.559L1200.04 330.538V317.896C1200.1 316.276 1200.46 314.68 1201.09 313.182L1214.76 284.247C1214.92 284.012 1215 283.737 1215 283.458C1215 283.178 1214.92 282.904 1214.76 282.669C1214.61 282.434 1214.39 282.247 1214.13 282.131C1213.87 282.015 1213.58 281.975 1213.29 282.015Z" fill="url(#paint1_linear_0_1)"/>
<path d="M1078.52 226.303C1071.99 227.987 1066.07 231.34 1061.4 235.999C1055.95 217.794 1044.24 190.249 1032.81 185.737C1031.6 185.203 1030.27 184.952 1028.94 185.007C1027.61 185.063 1026.32 185.421 1025.16 186.054C1018.01 190.011 1013.36 202.755 1017.43 226.896C1001.72 199.51 996.238 199.549 993.703 199.51C992.485 199.526 991.299 199.884 990.294 200.538C989.289 201.193 988.509 202.116 988.051 203.19C986.347 206.792 982.94 218.031 991.251 242.212C981.236 229.152 978.161 227.49 974.628 227.648C973.498 227.712 972.407 228.065 971.47 228.672C970.534 229.278 969.787 230.114 969.309 231.091C966.317 236.474 966.649 250.009 975.958 270.193C972.77 267.513 968.733 265.925 964.489 265.681C963.345 265.757 962.241 266.105 961.275 266.693C960.31 267.28 959.514 268.089 958.962 269.045C955.18 275.654 963.117 294.215 972.924 306.801C980.862 317.13 996.778 333 1019.88 333C1023.12 332.995 1026.35 332.704 1029.52 332.129C1030.63 331.943 1031.61 331.346 1032.26 330.47C1032.9 329.594 1033.15 328.511 1032.96 327.458C1032.76 326.405 1032.14 325.469 1031.22 324.855C1030.3 324.242 1029.16 324.001 1028.05 324.186C1028 324.195 1027.95 324.204 1027.9 324.214C1008.7 327.776 994.243 317.724 985.475 308.7C972.384 295.205 966.649 278.979 966.317 274.032C969.06 275.1 976.955 279.533 992.331 298.292C992.982 299.158 993.966 299.742 995.069 299.917C996.172 300.091 997.302 299.841 998.212 299.222C999.121 298.602 999.735 297.665 999.918 296.614C1000.1 295.564 999.838 294.488 999.188 293.622V293.622C977.579 262.396 975.459 243.479 976.166 237.107C982.524 243.281 998.399 265.918 1010.37 283.015C1010.97 283.882 1011.9 284.493 1012.96 284.721C1014.03 284.95 1015.14 284.778 1016.08 284.241C1017.01 283.704 1017.69 282.845 1017.97 281.842C1018.26 280.839 1018.12 279.771 1017.6 278.86C992.664 235.326 993.536 215.538 994.991 208.889C998.731 212.491 1008.66 225.036 1029.57 268.253C1030.03 269.187 1030.86 269.915 1031.87 270.286C1032.89 270.657 1034.01 270.643 1035.01 270.246C1036.02 269.85 1036.82 269.102 1037.26 268.156C1037.7 267.211 1037.74 266.141 1037.38 265.167C1017.1 212.728 1025.91 194.958 1029.28 192.94C1033.64 192.94 1045.9 212.966 1053.54 239.205C1054 240.827 1054.46 242.41 1054.87 243.954C1053.8 245.749 1052.96 247.663 1052.38 249.653C1048.22 264.177 1044.07 297.144 1052.09 306.207C1052.89 307.156 1053.92 307.903 1055.09 308.379C1056.27 308.856 1057.55 309.048 1058.82 308.938C1060.43 308.771 1061.98 308.266 1063.36 307.458C1064.74 306.65 1065.92 305.561 1066.8 304.268C1074.24 293.938 1069.88 268.016 1063.93 245.339C1067.98 239.886 1073.84 235.886 1080.56 233.981C1081.99 233.551 1083.52 233.5 1084.99 233.835C1086.45 234.169 1087.79 234.876 1088.87 235.88C1092.27 239.521 1098.22 253.135 1080.18 301.141C1080 301.64 1079.92 302.169 1079.94 302.698C1079.97 303.226 1080.11 303.744 1080.35 304.222C1080.83 305.187 1081.7 305.929 1082.76 306.286C1083.82 306.643 1084.98 306.585 1085.99 306.125C1087.01 305.665 1087.79 304.84 1088.16 303.832C1102.54 265.562 1104.78 240.906 1095.18 230.537C1093.09 228.425 1090.43 226.909 1087.48 226.161C1084.54 225.413 1081.44 225.462 1078.52 226.303V226.303ZM1059.82 299.796C1059.51 300.327 1059.01 300.735 1058.41 300.943C1055.29 297.421 1055.29 276.564 1058.7 259.468C1065.14 289.031 1061.4 297.698 1059.82 299.796V299.796Z" fill="url(#paint2_linear_0_1)"/>
</g>
<defs>
<linearGradient id="paint0_linear_0_1" x1="282.586" y1="-113.169" x2="882.656" y2="538.56" gradientUnits="userSpaceOnUse">
<stop stop-color="#C97AFE"/>
<stop offset="0.37384" stop-color="#DCA8FF" stop-opacity="0.62616"/>
<stop offset="1" stop-color="white" stop-opacity="0"/>
</linearGradient>
<linearGradient id="paint1_linear_0_1" x1="1048.1" y1="358.486" x2="1227.2" y2="358.486" gradientUnits="userSpaceOnUse">
<stop stop-color="#F2F2F2"/>
<stop offset="0.99" stop-color="#D963FF"/>
</linearGradient>
<linearGradient id="paint2_linear_0_1" x1="950.135" y1="259" x2="1299.48" y2="259" gradientUnits="userSpaceOnUse">
<stop stop-color="#F2F2F2"/>
<stop offset="0.99" stop-color="#6C139C"/>
</linearGradient>
<clipPath id="clip0_0_1">
<rect width="1440" height="1024" fill="white"/>
</clipPath>
<clipPath id="clip1_0_1">
<rect width="635" height="593" fill="white" transform="translate(797 202)"/>
</clipPath>
<clipPath id="clip2_0_1">
<rect width="175" height="107" fill="white" transform="translate(1115 414)"/>
</clipPath>
</defs>
</svg>
