<svg width="1024" height="1366" viewBox="0 0 1024 1366" fill="none" xmlns="http://www.w3.org/2000/svg">
<rect width="1024" height="1366" fill="#F5F5F5"/>
<g clip-path="url(#clip0_0_1)">
<rect width="1024" height="1366" fill="white"/>
<ellipse cx="978" cy="914.5" rx="363" ry="362.5" fill="#CD82FF"/>
<g clip-path="url(#clip1_0_1)">
<path d="M567.786 640.689H255.787C235.485 640.689 219.028 658.728 219.028 680.981V1018.6C219.028 1040.85 235.485 1058.89 255.787 1058.89H567.786C588.087 1058.89 604.545 1040.85 604.545 1018.6V680.981C604.545 658.728 588.087 640.689 567.786 640.689Z" fill="#F2F2F2"/>
<path d="M321.306 648.975C296.185 648.975 272.093 659.913 254.33 679.383C236.567 698.853 226.588 725.26 226.588 752.794V1018.6C226.588 1022.8 227.343 1026.97 228.81 1030.85C230.278 1034.73 232.428 1038.26 235.14 1041.23C237.851 1044.2 241.07 1046.56 244.613 1048.17C248.156 1049.78 251.953 1050.61 255.787 1050.61H454.912C492.592 1050.61 528.729 1034.2 555.373 1005C582.017 975.793 596.985 936.184 596.985 894.884V680.981C596.985 672.492 593.909 664.352 588.433 658.349C582.957 652.347 575.53 648.975 567.785 648.975H321.306Z" fill="white"/>
<path d="M459.372 908.178H247.712C246.501 908.178 245.34 907.65 244.484 906.712C243.628 905.774 243.147 904.501 243.147 903.175C243.147 901.848 243.628 900.575 244.484 899.637C245.34 898.699 246.501 898.172 247.712 898.172H459.372C460.583 898.172 461.744 898.699 462.6 899.637C463.456 900.575 463.937 901.848 463.937 903.175C463.937 904.501 463.456 905.774 462.6 906.712C461.744 907.65 460.583 908.178 459.372 908.178Z" fill="#F2F2F2"/>
<path d="M459.372 765.473H140.565C139.965 765.475 139.37 765.346 138.816 765.095C138.261 764.844 137.757 764.476 137.332 764.011C136.907 763.547 136.57 762.995 136.341 762.387C136.111 761.779 135.992 761.128 135.992 760.47C135.992 759.813 136.111 759.161 136.341 758.554C136.57 757.946 136.907 757.394 137.332 756.93C137.757 756.465 138.261 756.097 138.816 755.846C139.37 755.595 139.965 755.466 140.565 755.467H459.372C460.581 755.47 461.74 755.998 462.594 756.936C463.449 757.874 463.929 759.145 463.929 760.47C463.929 761.796 463.449 763.067 462.594 764.005C461.74 764.943 460.581 765.471 459.372 765.473V765.473Z" fill="#F2F2F2"/>
<path d="M459.378 801.199H140.558C139.348 801.202 138.188 801.73 137.333 802.669C136.478 803.608 135.998 804.88 135.998 806.206C135.998 807.533 136.478 808.805 137.333 809.744C138.188 810.682 139.348 811.211 140.558 811.213H459.378C460.589 811.211 461.748 810.682 462.603 809.744C463.458 808.805 463.939 807.533 463.939 806.206C463.939 804.88 463.458 803.608 462.603 802.669C461.748 801.73 460.589 801.202 459.378 801.199V801.199Z" fill="#F2F2F2"/>
<path d="M459.372 856.952H140.565C139.355 856.952 138.194 856.425 137.338 855.487C136.482 854.549 136.001 853.276 136.001 851.949C136.001 850.622 136.482 849.35 137.338 848.412C138.194 847.473 139.355 846.946 140.565 846.946H459.372C460.583 846.946 461.744 847.473 462.6 848.412C463.456 849.35 463.937 850.622 463.937 851.949C463.937 853.276 463.456 854.549 462.6 855.487C461.744 856.425 460.583 856.952 459.372 856.952V856.952Z" fill="#F2F2F2"/>
<path d="M727.829 1256.66L713.192 1256.66L706.23 1194.78L727.831 1194.79L727.829 1256.66Z" fill="#FFB9B9"/>
<path d="M728.343 1273.4L683.335 1273.4V1272.77C683.335 1267.68 685.181 1262.8 688.466 1259.2C691.752 1255.6 696.207 1253.57 700.854 1253.57H700.855L709.076 1246.74L724.415 1253.57L728.344 1253.57L728.343 1273.4Z" fill="#2F2E41"/>
<path d="M875.095 1256.66L860.46 1256.66L853.496 1194.78L875.099 1194.79L875.095 1256.66Z" fill="#FFB8B8"/>
<path d="M875.611 1273.4L830.602 1273.4V1272.77C830.603 1267.68 832.449 1262.8 835.734 1259.2C839.019 1255.6 843.475 1253.57 848.121 1253.57H848.122L856.343 1246.74L871.683 1253.57L875.612 1253.57L875.611 1273.4Z" fill="#2F2E41"/>
<path d="M739.77 901.17C739.77 901.17 730.158 912.352 729.752 919.606C729.346 926.861 734.355 913.684 729.346 926.861C724.337 940.037 724.337 931.253 724.337 940.037C724.337 948.822 713.723 957.4 713.723 957.4L696.22 1036.33L706.304 1221.14H728.344C748.827 1152.71 758.356 1099.86 747.379 1076.2L777.987 1001.63C777.987 1001.63 835.823 1200 838.185 1202.34C840.548 1204.67 840.548 1201.38 840.548 1204.67C840.548 1207.97 837.543 1204.67 840.548 1207.97L854.573 1223.34L875.612 1221.14C875.612 1221.14 878.427 1077.53 854.979 1052.7C854.979 1052.7 860.394 975.842 854.979 976.058C849.564 976.274 849.564 986.157 849.564 976.274C849.564 966.391 855.981 963.754 855.981 963.754L837.948 894.337L739.77 901.17Z" fill="#2F2E41"/>
<path d="M853.333 748.16L832.963 841.642L837.774 876.413L843.547 918.069L823.589 916.653L792.705 914.453L735.361 910.385L730.344 725.909L756.652 695.778L761.353 681.149L799.385 680.893L808.484 698.459L831.878 705.751C834.885 707.842 837.71 710.233 840.317 712.892C846.09 718.752 851.203 726.195 853.595 733.818C854.315 736.04 854.773 738.353 854.955 740.703L853.333 748.16Z" fill="#E6E6E6"/>
<path d="M676.303 985.347C677.835 984.419 679.165 983.136 680.201 981.589C681.237 980.042 681.954 978.266 682.303 976.385C682.651 974.504 682.622 972.563 682.219 970.695C681.815 968.828 681.047 967.079 679.966 965.569L708.977 907.678L696.341 894.946L662.343 963.98C660.159 966.163 658.782 969.148 658.473 972.37C658.164 975.592 658.943 978.826 660.664 981.46C662.385 984.094 664.927 985.944 667.809 986.66C670.692 987.377 673.714 986.91 676.303 985.347V985.347Z" fill="#E6E6E6"/>
<path d="M747.06 714.63L740.298 847.41L707.719 930.852L686.514 961.674L688.925 947.708L674.308 939.692L672.936 938.945L700.997 819.584L703.581 773.202C704.027 765.22 705.979 757.426 709.314 750.314C712.649 743.201 717.295 736.925 722.957 731.881L739.186 717.43L747.06 714.63Z" fill="#E6E6E6"/>
<path d="M676.303 985.347C677.835 984.419 679.165 983.136 680.201 981.589C681.237 980.042 681.954 978.266 682.303 976.385C682.651 974.504 682.622 972.563 682.219 970.695C681.815 968.828 681.047 967.079 679.966 965.569L708.977 907.678L696.341 894.946L662.343 963.98C660.159 966.163 658.782 969.148 658.473 972.37C658.164 975.592 658.943 978.826 660.664 981.46C662.385 984.094 664.927 985.944 667.809 986.66C670.692 987.377 673.714 986.91 676.303 985.347V985.347Z" fill="#A0616A"/>
<path d="M747.06 714.63L740.298 847.41L707.719 930.852L686.514 961.674L688.925 947.708L674.308 939.692L672.936 938.945L700.997 819.584L703.581 773.202C704.027 765.22 705.979 757.426 709.314 750.314C712.649 743.201 717.295 736.925 722.957 731.881L739.186 717.43L747.06 714.63Z" fill="#E6E6E6"/>
<path d="M778.461 719.208H466.462C446.161 719.208 429.703 737.247 429.703 759.499V935.919C429.703 958.172 446.161 976.211 466.462 976.211H778.461C798.763 976.211 815.22 958.172 815.22 935.919V759.499C815.22 737.247 798.763 719.208 778.461 719.208Z" fill="white"/>
<path d="M778.461 977.717H466.462C456.352 977.705 446.659 973.297 439.51 965.461C432.361 957.625 428.34 947.001 428.328 935.92V759.499C428.34 748.417 432.361 737.793 439.51 729.957C446.659 722.121 456.352 717.714 466.462 717.701H778.461C788.571 717.714 798.264 722.122 805.413 729.958C812.562 737.793 816.583 748.418 816.594 759.499V935.92C816.583 947.001 812.562 957.625 805.413 965.461C798.264 973.297 788.571 977.705 778.461 977.717V977.717ZM466.462 720.714C457.078 720.714 448.077 724.801 441.441 732.074C434.806 739.348 431.077 749.213 431.077 759.499V825.44C431.077 865.027 445.425 902.993 470.964 930.986C496.502 958.978 531.14 974.704 567.257 974.704H778.461C787.846 974.704 796.846 970.618 803.482 963.345C810.117 956.071 813.845 946.206 813.845 935.92V759.499C813.845 754.406 812.93 749.362 811.152 744.657C809.374 739.951 806.767 735.676 803.481 732.074C800.196 728.473 796.295 725.616 792.002 723.667C787.709 721.717 783.107 720.714 778.461 720.714L466.462 720.714Z" fill="#3F3D56"/>
<path d="M548.927 906.465H476.079C473.422 906.465 471.268 908.825 471.268 911.738C471.268 914.65 473.422 917.01 476.079 917.01H548.927C551.583 917.01 553.737 914.65 553.737 911.738C553.737 908.825 551.583 906.465 548.927 906.465Z" fill="#FFB9B9"/>
<path d="M768.844 892.152H717.988C715.331 892.152 713.177 894.513 713.177 897.425V926.05C713.177 928.962 715.331 931.323 717.988 931.323H768.844C771.501 931.323 773.655 928.962 773.655 926.05V897.425C773.655 894.513 771.501 892.152 768.844 892.152Z" fill="#FF6584"/>
<path d="M496.009 818.332C509.673 818.332 520.75 806.191 520.75 791.214C520.75 776.237 509.673 764.096 496.009 764.096C482.345 764.096 471.268 776.237 471.268 791.214C471.268 806.191 482.345 818.332 496.009 818.332Z" fill="#FFE7F8"/>
<path d="M778.979 673.129C796.137 673.129 810.045 657.884 810.045 639.078C810.045 620.273 796.137 605.028 778.979 605.028C761.822 605.028 747.914 620.273 747.914 639.078C747.914 657.884 761.822 673.129 778.979 673.129Z" fill="#FFB8B8"/>
<path d="M804.465 656.678C804.708 658.712 801.35 658.927 800.593 657.051C799.836 655.175 800.818 653.049 801.773 651.284L803.989 647.188C804.406 646.417 804.649 645.547 804.698 644.652C804.746 643.757 804.599 642.862 804.268 642.042C803.937 641.222 803.432 640.5 802.796 639.937C802.159 639.374 801.408 638.986 800.607 638.806C802.635 633.807 800.434 627.568 796.394 624.356C792.354 621.144 786.342 627.153 781.441 628.184C776.539 629.215 772.615 625.103 768.147 627.54L770.831 620.758L755.973 627.774L759.425 620.144C755.675 620.368 754.078 625.374 753.331 629.408C752.535 633.707 750.446 639.08 746.183 638.189C745.172 637.942 744.245 637.387 743.509 636.588C742.773 635.789 742.258 634.778 742.023 633.672C738.729 619.75 748.293 604.53 760.971 602.089C762.327 597.986 764.846 594.466 768.159 592.046C771.472 589.626 775.405 588.433 779.382 588.64C783.358 588.848 787.17 590.446 790.258 593.2C793.347 595.954 795.549 599.719 796.543 603.945L800.7 598.367L801.511 606.27C804.498 605.922 807.32 608.234 808.771 611.117C810.223 613.999 809.537 617.721 810.931 620.638C817.177 633.71 815.111 648.427 805.465 658.453" fill="#2F2E41"/>
<path d="M913.422 1250.61C914.061 1250.65 914.693 1250.46 915.234 1250.09C915.774 1249.71 916.196 1249.16 916.443 1248.52C916.69 1247.87 916.749 1247.16 916.613 1246.47C916.477 1245.79 916.152 1245.16 915.683 1244.69L915.469 1243.76C915.497 1243.68 915.525 1243.61 915.554 1243.53C916.197 1241.87 917.276 1240.45 918.654 1239.45C920.032 1238.45 921.648 1237.92 923.298 1237.93C924.949 1237.94 926.562 1238.48 927.933 1239.49C929.304 1240.49 930.373 1241.92 931.005 1243.6C933.532 1250.27 936.75 1256.95 937.542 1264C937.891 1267.12 937.743 1270.28 937.107 1273.34C943.042 1259.15 946.124 1243.73 946.144 1228.12C946.145 1224.2 945.947 1220.28 945.549 1216.39C945.221 1213.2 944.765 1210.03 944.182 1206.88C941.001 1189.81 934.17 1173.81 924.252 1160.2C919.451 1157.33 915.569 1152.91 913.128 1147.55C912.244 1145.62 911.619 1143.56 911.273 1141.44C911.814 1141.51 913.315 1132.47 912.906 1131.92C913.661 1130.66 915.012 1130.04 915.836 1128.82C919.935 1122.72 925.583 1123.79 928.531 1132.07C934.829 1135.55 934.89 1141.33 931.026 1146.89C928.567 1150.42 928.229 1155.21 926.072 1158.99C926.294 1159.3 926.525 1159.6 926.747 1159.92C930.804 1165.63 934.34 1171.77 937.304 1178.25C936.583 1170.99 937.444 1163.66 939.814 1156.84C942.217 1150.49 946.721 1145.14 950.687 1139.64C951.736 1138.17 953.161 1137.07 954.781 1136.48C956.401 1135.89 958.144 1135.84 959.789 1136.34C961.434 1136.84 962.908 1137.86 964.024 1139.27C965.14 1140.69 965.849 1142.43 966.06 1144.29C966.068 1144.37 966.076 1144.45 966.083 1144.53C965.494 1144.9 964.918 1145.28 964.353 1145.69C963.645 1146.21 963.095 1146.95 962.778 1147.82C962.46 1148.69 962.389 1149.64 962.573 1150.55C962.757 1151.46 963.189 1152.29 963.811 1152.93C964.433 1153.57 965.217 1153.99 966.059 1154.13L966.145 1154.14C965.936 1156.47 965.565 1158.78 965.036 1161.04C970.124 1182.61 959.139 1190.47 943.454 1190.82C943.108 1191.01 942.771 1191.21 942.424 1191.39C945.403 1200.64 947.271 1210.28 947.982 1220.06C948.384 1225.83 948.361 1231.62 947.911 1237.39L947.937 1237.19C949.074 1230.77 952.194 1224.99 956.771 1220.81C963.568 1214.69 973.172 1212.43 980.506 1207.51C981.285 1206.97 982.191 1206.67 983.117 1206.67C984.044 1206.67 984.951 1206.96 985.733 1207.5C986.515 1208.05 987.138 1208.82 987.53 1209.74C987.922 1210.66 988.065 1211.69 987.943 1212.69L987.913 1212.91C986.82 1213.4 985.756 1213.96 984.726 1214.59C984.137 1214.96 983.561 1215.34 982.996 1215.75C982.287 1216.27 981.738 1217.01 981.421 1217.88C981.103 1218.75 981.032 1219.7 981.216 1220.61C981.4 1221.52 981.832 1222.35 982.454 1222.99C983.076 1223.63 983.86 1224.05 984.702 1224.19L984.788 1224.21C984.851 1224.21 984.904 1224.22 984.966 1224.23C983.098 1229.12 980.476 1233.62 977.216 1237.54C974.034 1256.36 960.37 1258.15 945.754 1252.67H945.745C944.141 1260.31 941.817 1267.74 938.811 1274.85H914.043C913.954 1274.55 913.874 1274.24 913.794 1273.94C916.087 1274.1 918.388 1273.95 920.648 1273.49C918.81 1271.02 916.972 1268.53 915.135 1266.06C915.094 1266.01 915.055 1265.96 915.019 1265.91C914.087 1264.65 913.146 1263.39 912.214 1262.13L912.213 1262.12C912.164 1258.25 912.57 1254.38 913.421 1250.61L913.422 1250.61Z" fill="#F2F2F2"/>
<path d="M792.211 977.289C793.712 976.302 795 974.969 795.985 973.382C796.97 971.795 797.629 969.993 797.916 968.1C798.203 966.206 798.112 964.267 797.648 962.417C797.184 960.566 796.359 958.848 795.23 957.381L822.346 898.397L809.306 886.165L777.567 956.479C775.455 958.746 774.176 961.783 773.971 965.015C773.767 968.246 774.651 971.448 776.456 974.013C778.261 976.578 780.862 978.329 783.765 978.932C786.669 979.536 789.674 978.952 792.211 977.289V977.289Z" fill="#A0616A"/>
<path d="M853.594 733.818L854.955 740.703L851.698 836.941L837.774 876.413L823.589 916.653L821.844 921.609L801.653 953.231L803.604 939.175L788.732 931.733L787.344 931.055L792.705 914.453L805.034 876.307L810.367 859.795L811.521 810.667L812.594 764.22C812.78 756.226 814.478 748.362 817.579 741.124C820.681 733.887 825.119 727.433 830.613 722.172L840.317 712.892C846.09 718.752 851.203 726.195 853.594 733.818Z" fill="#E6E6E6"/>
<path d="M529.202 974.236L464.769 972.73C456.754 972.717 449.071 969.22 443.404 963.007C437.737 956.794 434.55 948.371 434.541 939.586L431.792 865.746C439.704 925.946 470.107 964.132 529.202 974.236Z" fill="#3F3D56"/>
<g clip-path="url(#clip2_0_1)">
<path d="M758.657 877.449H750.031V885.49H758.657V877.449Z" fill="#F0F0F0"/>
<path d="M797.474 800.254C797.478 812.379 794.392 824.282 788.54 834.712C782.688 845.143 774.286 853.716 764.216 859.533C763.645 859.863 763.066 860.185 762.485 860.496C760.33 861.656 758.114 862.684 755.846 863.573C754.943 863.932 754.03 864.266 753.108 864.575C753.02 864.607 752.928 864.639 752.839 864.666C743.812 867.694 734.259 868.561 724.875 867.204C715.49 865.846 706.51 862.299 698.584 856.818C697.521 856.084 696.48 855.317 695.461 854.518C694.885 854.065 694.317 853.604 693.756 853.13C692.171 851.8 690.648 850.391 689.19 848.903C682.988 842.609 678.055 835.054 674.69 826.694C671.324 818.333 669.595 809.339 669.606 800.254C669.606 762.948 698.229 732.708 733.54 732.708C768.851 732.708 797.474 762.948 797.474 800.254Z" fill="#F2F2F2"/>
<path d="M748.808 831.775L747.367 837.533L752.839 864.666C738.129 869.561 722.243 868.698 708.086 862.235L712.358 843.309L712.5 833.043L712.964 799.192L713.081 799.128C713.088 799.123 713.096 799.12 713.104 799.117L723.988 793.213L742.767 792.717L756.78 799.927L756.673 800.348L748.808 831.775Z" fill="#3F3D56"/>
<path d="M756.486 881.24C756.055 880.698 755.741 880.062 755.568 879.378C755.394 878.694 755.365 877.977 755.482 877.28C755.598 876.582 755.858 875.92 756.244 875.34C756.629 874.761 757.129 874.277 757.711 873.924L754.662 857.009L762.48 860.451L764.176 875.986C764.673 877.057 764.781 878.283 764.48 879.432C764.178 880.581 763.488 881.574 762.54 882.221C761.592 882.869 760.452 883.127 759.337 882.946C758.221 882.765 757.207 882.158 756.486 881.24V881.24Z" fill="#9E616A"/>
<path d="M753.955 800.453L755.961 799.764C755.961 799.764 762.324 804.078 761.718 814.509C761.718 814.509 761.957 819.907 761.729 823.499C761.468 827.619 764.969 868.564 764.969 868.564H753.63L748.771 831.485L753.955 800.453Z" fill="#3F3D56"/>
<path d="M747.378 774.209C747.378 776.929 746.614 779.588 745.184 781.849C743.754 784.111 741.721 785.874 739.342 786.915C736.963 787.956 734.346 788.228 731.82 787.698C729.295 787.167 726.976 785.857 725.155 783.934C723.334 782.01 722.095 779.56 721.592 776.892C721.09 774.224 721.348 771.458 722.333 768.945C723.318 766.432 724.987 764.284 727.128 762.773C729.268 761.262 731.785 760.455 734.36 760.455H734.36C736.065 760.451 737.755 760.801 739.332 761.486C740.909 762.172 742.343 763.178 743.552 764.449C744.761 765.72 745.721 767.23 746.377 768.893C747.034 770.555 747.374 772.338 747.378 774.14C747.378 774.163 747.378 774.186 747.378 774.209Z" fill="#FFB8B8"/>
<path d="M721.385 755.735C722.91 752.271 725.861 752.956 728.442 754.13C731.711 753.364 734.819 751.071 738.341 752.427C741.81 757.758 753.456 756.189 750.978 764.867C750.975 766.946 754.682 765.736 754.035 769.142C755.998 775.695 746.947 788.107 741.751 785.494C743.036 783.005 745.972 777.354 741.519 776.793C731.941 786.209 740.531 758.864 728.496 766.816C724.512 770.669 719.056 759.589 721.385 755.735Z" fill="#2F2E41"/>
<path d="M741.306 866.059L720.526 861.71L725.854 833.288C733.207 836.226 740.134 837.675 746.635 837.636C740.953 846.439 738.373 855.89 741.306 866.059Z" fill="#E4E4E4"/>
<path d="M738.285 867.728L717.505 863.38C715.799 850.504 717.349 840.809 722.833 834.957C730.186 837.895 737.112 839.345 743.613 839.305C740.179 848.347 738.372 857.986 738.285 867.728V867.728Z" fill="#FF6584"/>
<path d="M724.517 859.811C724.434 859.108 724.207 858.432 723.851 857.832C723.495 857.232 723.018 856.722 722.455 856.337C721.892 855.952 721.256 855.703 720.592 855.606C719.928 855.509 719.252 855.568 718.611 855.777L708.96 841.901L706.024 850.294L715.638 862.184C716.042 863.297 716.819 864.216 717.821 864.765C718.823 865.314 719.981 865.456 721.075 865.163C722.169 864.871 723.124 864.165 723.759 863.178C724.393 862.191 724.663 860.993 724.517 859.811Z" fill="#9E616A"/>
<path d="M715.864 799.924L714.116 798.677C714.116 798.677 703.714 799.7 701.573 809.903C701.573 809.903 700.008 816.033 699.29 819.553C698.92 821.363 693.991 838.851 693.991 838.851L710.706 858.15L715.273 850.913L710.706 838.851L715.864 799.924Z" fill="#3F3D56"/>
<path d="M625.653 873.602C625.397 873.602 625.152 873.71 624.971 873.901C624.79 874.092 624.689 874.351 624.689 874.621C624.689 874.891 624.79 875.15 624.971 875.341C625.152 875.532 625.397 875.639 625.653 875.639H696.044C696.3 875.639 696.544 875.531 696.725 875.34C696.905 875.149 697.006 874.891 697.006 874.621C697.006 874.351 696.905 874.092 696.725 873.901C696.544 873.711 696.3 873.603 696.044 873.602H625.653Z" fill="#E4E4E4"/>
<path d="M625.653 879.714C625.526 879.713 625.401 879.739 625.283 879.79C625.166 879.841 625.06 879.916 624.97 880.01C624.88 880.105 624.809 880.217 624.76 880.34C624.711 880.464 624.686 880.596 624.686 880.73C624.685 880.864 624.71 880.997 624.758 881.12C624.807 881.244 624.878 881.357 624.967 881.451C625.056 881.546 625.163 881.621 625.28 881.673C625.397 881.724 625.522 881.751 625.649 881.751H670.151C670.407 881.751 670.652 881.644 670.833 881.453C671.013 881.262 671.115 881.002 671.115 880.732C671.115 880.462 671.013 880.203 670.833 880.012C670.652 879.821 670.407 879.714 670.151 879.714H625.653Z" fill="#E4E4E4"/>
<path d="M612.144 881.341C614.105 881.341 615.696 879.661 615.696 877.588C615.696 875.516 614.105 873.836 612.144 873.836C610.182 873.836 608.592 875.516 608.592 877.588C608.592 879.661 610.182 881.341 612.144 881.341Z" fill="#FF58D0"/>
</g>
</g>
<rect width="1024" height="370" fill="url(#paint0_linear_0_1)"/>
</g>
<defs>
<linearGradient id="paint0_linear_0_1" x1="512" y1="0" x2="512" y2="404.77" gradientUnits="userSpaceOnUse">
<stop stop-color="#CD82FF"/>
<stop offset="1" stop-color="white" stop-opacity="0"/>
<stop offset="1" stop-color="#CD82FF" stop-opacity="0.479167"/>
<stop offset="1" stop-color="white" stop-opacity="0.560073"/>
</linearGradient>
<clipPath id="clip0_0_1">
<rect width="1024" height="1366" fill="white"/>
</clipPath>
<clipPath id="clip1_0_1">
<rect width="852" height="846.726" fill="white" transform="translate(136 430)"/>
</clipPath>
<clipPath id="clip2_0_1">
<rect width="234.803" height="152.782" fill="white" transform="translate(562.671 732.708)"/>
</clipPath>
</defs>
</svg>
