<svg width="360" height="800" viewBox="0 0 360 800" fill="none" xmlns="http://www.w3.org/2000/svg">
<rect width="360" height="800" fill="#F5F5F5"/>
<g clip-path="url(#clip0_0_1)">
<rect width="360" height="800" fill="white"/>
<ellipse cx="381" cy="514.5" rx="190" ry="185.5" transform="rotate(162.425 381 514.5)" fill="#CE84FF"/>
<rect x="-4" y="-161" width="408" height="373" fill="#F1F1F1"/>
<g clip-path="url(#clip1_0_1)">
<path d="M182.268 423.076H59.9588C52.0002 423.076 45.5484 430.788 45.5484 440.302V584.644C45.5484 594.158 52.0002 601.87 59.9588 601.87H182.268C190.227 601.87 196.679 594.158 196.679 584.644V440.302C196.679 430.788 190.227 423.076 182.268 423.076Z" fill="#F2F2F2"/>
<path d="M85.6433 426.618C75.7955 426.618 66.351 431.295 59.3875 439.618C52.4241 447.942 48.512 459.232 48.512 471.004V584.644C48.512 586.441 48.8081 588.22 49.3834 589.881C49.9586 591.541 50.8018 593.049 51.8647 594.32C52.9277 595.59 54.1896 596.598 55.5784 597.286C56.9671 597.974 58.4556 598.327 59.9589 598.327H138.02C152.791 598.327 166.957 591.313 177.402 578.828C187.847 566.342 193.715 549.408 193.715 531.751V440.301C193.715 436.672 192.509 433.192 190.362 430.626C188.215 428.06 185.304 426.618 182.268 426.618H85.6433Z" fill="white"/>
<path d="M139.768 537.435H56.7931C56.3185 537.435 55.8634 537.209 55.5278 536.808C55.1922 536.407 55.0037 535.863 55.0037 535.296C55.0037 534.729 55.1922 534.185 55.5278 533.783C55.8634 533.382 56.3185 533.157 56.7931 533.157H139.768C140.243 533.157 140.698 533.382 141.033 533.783C141.369 534.185 141.557 534.729 141.557 535.296C141.557 535.863 141.369 536.407 141.033 536.808C140.698 537.209 140.243 537.435 139.768 537.435Z" fill="#F2F2F2"/>
<path d="M139.768 476.425H14.7895C14.5542 476.425 14.3212 476.37 14.1037 476.263C13.8863 476.156 13.6887 475.998 13.5222 475.799C13.3557 475.601 13.2236 475.365 13.1335 475.105C13.0434 474.845 12.997 474.567 12.997 474.286C12.997 474.005 13.0434 473.726 13.1335 473.466C13.2236 473.207 13.3557 472.971 13.5222 472.772C13.6887 472.573 13.8863 472.416 14.1037 472.309C14.3212 472.201 14.5542 472.146 14.7895 472.147H139.768C140.242 472.148 140.696 472.374 141.031 472.775C141.366 473.176 141.554 473.719 141.554 474.286C141.554 474.852 141.366 475.396 141.031 475.797C140.696 476.198 140.242 476.424 139.768 476.425V476.425Z" fill="#F2F2F2"/>
<path d="M139.77 491.699H14.7868C14.3124 491.699 13.8577 491.925 13.5225 492.327C13.1874 492.728 12.9991 493.272 12.9991 493.839C12.9991 494.406 13.1874 494.95 13.5225 495.351C13.8577 495.753 14.3124 495.979 14.7868 495.98H139.77C140.245 495.979 140.699 495.753 141.035 495.351C141.37 494.95 141.558 494.406 141.558 493.839C141.558 493.272 141.37 492.728 141.035 492.327C140.699 491.925 140.245 491.699 139.77 491.699V491.699Z" fill="#F2F2F2"/>
<path d="M139.768 515.535H14.7897C14.3151 515.535 13.86 515.309 13.5244 514.908C13.1888 514.507 13.0003 513.963 13.0003 513.396C13.0003 512.828 13.1888 512.284 13.5244 511.883C13.86 511.482 14.3151 511.257 14.7897 511.257H139.768C140.243 511.257 140.698 511.482 141.033 511.883C141.369 512.284 141.557 512.828 141.557 513.396C141.557 513.963 141.369 514.507 141.033 514.908C140.698 515.309 140.243 515.535 139.768 515.535V515.535Z" fill="#F2F2F2"/>
<path d="M245.008 686.423L239.27 686.422L236.541 659.967L245.009 659.968L245.008 686.423Z" fill="#FFB9B9"/>
<path d="M245.21 693.578L227.566 693.577V693.31C227.566 691.133 228.289 689.045 229.577 687.506C230.865 685.966 232.612 685.101 234.433 685.101H234.434L237.657 682.178L243.67 685.102L245.21 685.102L245.21 693.578Z" fill="#2F2E41"/>
<path d="M302.739 686.423L297.002 686.422L294.272 659.967L302.741 659.968L302.739 686.423Z" fill="#FFB8B8"/>
<path d="M302.941 693.578L285.297 693.577V693.31C285.297 691.133 286.021 689.045 287.309 687.506C288.597 685.966 290.343 685.101 292.165 685.101H292.165L295.388 682.178L301.401 685.102L302.942 685.102L302.941 693.578Z" fill="#2F2E41"/>
<path d="M249.689 534.439C249.689 534.439 245.921 539.219 245.762 542.321C245.603 545.422 247.566 539.789 245.603 545.422C243.639 551.056 243.639 547.3 243.639 551.056C243.639 554.811 239.478 558.479 239.478 558.479L232.617 592.224L236.57 671.237H245.21C253.239 641.98 256.975 619.386 252.672 609.269L264.671 577.389C264.671 577.389 287.344 662.197 288.27 663.196C289.196 664.195 289.196 662.787 289.196 664.195C289.196 665.604 288.018 664.195 289.196 665.604L294.694 672.176L302.942 671.237C302.942 671.237 304.045 609.836 294.853 599.224C294.853 599.224 296.976 566.363 294.853 566.456C292.731 566.548 292.731 570.773 292.731 566.548C292.731 562.323 295.246 561.195 295.246 561.195L288.177 531.517L249.689 534.439Z" fill="#2F2E41"/>
<path d="M294.208 469.023L286.223 508.989L288.109 523.854L290.372 541.664L282.548 541.058L270.441 540.118L247.961 538.379L245.994 459.509L256.307 446.628L258.15 440.373L273.059 440.264L276.626 447.774L285.797 450.892C286.976 451.786 288.083 452.808 289.105 453.945C291.369 456.45 293.373 459.632 294.311 462.891C294.593 463.841 294.772 464.83 294.844 465.834L294.208 469.023Z" fill="#E6E6E6"/>
<path d="M224.809 570.427C225.41 570.03 225.931 569.482 226.337 568.82C226.743 568.159 227.024 567.4 227.161 566.596C227.297 565.791 227.286 564.961 227.128 564.163C226.97 563.365 226.668 562.617 226.245 561.971L237.618 537.221L232.664 531.778L219.336 561.292C218.48 562.225 217.94 563.502 217.819 564.879C217.698 566.256 218.004 567.639 218.678 568.765C219.353 569.891 220.349 570.682 221.479 570.988C222.609 571.295 223.794 571.095 224.809 570.427V570.427Z" fill="#E6E6E6"/>
<path d="M252.547 454.688L249.896 511.455L237.125 547.129L228.812 560.306L229.757 554.335L224.027 550.908L223.489 550.589L234.489 499.559L235.503 479.729C235.677 476.316 236.443 472.984 237.75 469.943C239.057 466.903 240.878 464.219 243.098 462.063L249.46 455.885L252.547 454.688Z" fill="#E6E6E6"/>
<path d="M224.809 570.427C225.41 570.03 225.931 569.482 226.337 568.82C226.743 568.159 227.024 567.4 227.161 566.596C227.297 565.791 227.286 564.961 227.128 564.163C226.97 563.365 226.668 562.617 226.245 561.971L237.618 537.221L232.664 531.778L219.336 561.292C218.48 562.225 217.94 563.502 217.819 564.879C217.698 566.256 218.004 567.639 218.678 568.765C219.353 569.891 220.349 570.682 221.479 570.988C222.609 571.295 223.794 571.095 224.809 570.427V570.427Z" fill="#A0616A"/>
<path d="M252.547 454.688L249.896 511.455L237.125 547.129L228.812 560.306L229.757 554.335L224.027 550.908L223.489 550.589L234.489 499.559L235.503 479.729C235.677 476.316 236.443 472.984 237.75 469.943C239.057 466.903 240.878 464.219 243.098 462.063L249.46 455.885L252.547 454.688Z" fill="#E6E6E6"/>
<path d="M264.857 456.645H142.547C134.589 456.645 128.137 464.357 128.137 473.87V549.295C128.137 558.809 134.589 566.521 142.547 566.521H264.857C272.815 566.521 279.267 558.809 279.267 549.295V473.87C279.267 464.357 272.815 456.645 264.857 456.645Z" fill="white"/>
<path d="M264.857 567.165H142.547C138.584 567.16 134.784 565.275 131.982 561.925C129.179 558.575 127.603 554.033 127.598 549.295V473.87C127.603 469.133 129.179 464.591 131.982 461.24C134.784 457.89 138.584 456.006 142.547 456.001H264.857C268.82 456.006 272.62 457.89 275.422 461.241C278.225 464.591 279.801 469.133 279.806 473.87V549.295C279.801 554.033 278.225 558.575 275.422 561.925C272.62 565.275 268.82 567.16 264.857 567.165V567.165ZM142.547 457.289C138.869 457.289 135.34 459.036 132.739 462.145C130.137 465.255 128.676 469.473 128.676 473.87V502.062C128.676 518.987 134.3 535.218 144.312 547.186C154.324 559.154 167.902 565.877 182.061 565.877H264.857C268.536 565.877 272.064 564.13 274.665 561.02C277.267 557.911 278.728 553.693 278.728 549.296V473.87C278.728 471.693 278.369 469.537 277.672 467.525C276.975 465.513 275.953 463.685 274.665 462.145C273.377 460.606 271.848 459.384 270.165 458.551C268.482 457.718 266.678 457.289 264.857 457.289L142.547 457.289Z" fill="#3F3D56"/>
<path d="M174.875 536.702H146.317C145.276 536.702 144.431 537.712 144.431 538.957C144.431 540.202 145.276 541.211 146.317 541.211H174.875C175.917 541.211 176.761 540.202 176.761 538.957C176.761 537.712 175.917 536.702 174.875 536.702Z" fill="#FFB9B9"/>
<path d="M261.087 530.584H241.15C240.109 530.584 239.264 531.593 239.264 532.838V545.076C239.264 546.321 240.109 547.33 241.15 547.33H261.087C262.128 547.33 262.973 546.321 262.973 545.076V532.838C262.973 531.593 262.128 530.584 261.087 530.584Z" fill="#FF6584"/>
<path d="M154.13 499.023C159.487 499.023 163.829 493.832 163.829 487.429C163.829 481.026 159.487 475.836 154.13 475.836C148.774 475.836 144.431 481.026 144.431 487.429C144.431 493.832 148.774 499.023 154.13 499.023Z" fill="#FFE7F8"/>
<path d="M265.06 436.945C271.786 436.945 277.238 430.427 277.238 422.387C277.238 414.347 271.786 407.829 265.06 407.829C258.334 407.829 252.882 414.347 252.882 422.387C252.882 430.427 258.334 436.945 265.06 436.945Z" fill="#FFB8B8"/>
<path d="M275.051 429.911C275.146 430.781 273.83 430.873 273.533 430.071C273.236 429.269 273.621 428.36 273.995 427.605L274.864 425.854C275.028 425.524 275.123 425.153 275.142 424.77C275.161 424.387 275.103 424.005 274.974 423.654C274.844 423.303 274.646 422.995 274.396 422.754C274.147 422.513 273.853 422.348 273.538 422.27C274.333 420.133 273.471 417.466 271.887 416.093C270.303 414.72 267.946 417.289 266.025 417.729C264.103 418.17 262.565 416.412 260.813 417.454L261.866 414.554L256.041 417.554L257.394 414.292C255.924 414.388 255.298 416.528 255.005 418.253C254.693 420.09 253.874 422.388 252.203 422.007C251.807 421.901 251.443 421.664 251.155 421.322C250.866 420.981 250.664 420.549 250.572 420.076C249.281 414.124 253.03 407.617 258 406.573C258.532 404.819 259.519 403.314 260.818 402.279C262.117 401.245 263.659 400.735 265.218 400.823C266.777 400.912 268.271 401.595 269.482 402.773C270.692 403.95 271.556 405.56 271.945 407.367L273.575 404.982L273.893 408.361C275.064 408.212 276.17 409.2 276.739 410.433C277.308 411.665 277.039 413.256 277.586 414.503C280.034 420.092 279.224 426.384 275.443 430.67" fill="#2F2E41"/>
<path d="M317.764 683.836C318.014 683.85 318.262 683.771 318.474 683.611C318.686 683.45 318.852 683.216 318.948 682.94C319.045 682.663 319.068 682.358 319.015 682.065C318.962 681.772 318.834 681.506 318.65 681.303L318.566 680.904C318.577 680.872 318.589 680.841 318.6 680.809C318.852 680.096 319.275 679.489 319.815 679.063C320.355 678.637 320.989 678.411 321.636 678.414C322.283 678.417 322.915 678.648 323.453 679.079C323.99 679.51 324.409 680.121 324.657 680.836C325.648 683.688 326.909 686.545 327.219 689.561C327.356 690.894 327.299 692.245 327.049 693.554C329.376 687.487 330.584 680.893 330.592 674.218C330.592 672.543 330.514 670.87 330.359 669.205C330.23 667.841 330.051 666.486 329.823 665.141C328.575 657.842 325.898 651.002 322.01 645.181C320.128 643.953 318.606 642.066 317.649 639.772C317.302 638.948 317.057 638.068 316.922 637.16C317.134 637.193 317.722 633.328 317.562 633.091C317.858 632.555 318.387 632.288 318.71 631.764C320.317 629.16 322.531 629.615 323.687 633.154C326.156 634.643 326.18 637.114 324.665 639.489C323.701 641.001 323.569 643.046 322.723 644.665C322.81 644.798 322.901 644.927 322.988 645.06C324.578 647.505 325.964 650.13 327.126 652.898C326.844 649.797 327.181 646.66 328.11 643.745C329.052 641.029 330.818 638.741 332.373 636.393C332.784 635.762 333.342 635.291 333.977 635.04C334.613 634.788 335.296 634.767 335.941 634.98C336.586 635.193 337.163 635.629 337.601 636.234C338.039 636.839 338.316 637.585 338.399 638.379C338.402 638.414 338.405 638.448 338.408 638.483C338.177 638.638 337.951 638.804 337.73 638.979C337.452 639.201 337.237 639.518 337.112 639.888C336.988 640.259 336.96 640.666 337.032 641.056C337.104 641.446 337.274 641.801 337.517 642.074C337.761 642.347 338.068 642.526 338.399 642.587L338.433 642.593C338.35 643.588 338.205 644.574 337.998 645.542C339.992 654.763 335.686 658.122 329.537 658.272C329.402 658.356 329.269 658.439 329.134 658.518C330.301 662.473 331.033 666.593 331.312 670.773C331.47 673.24 331.461 675.718 331.284 678.183L331.295 678.095C331.74 675.355 332.963 672.881 334.758 671.094C337.422 668.477 341.187 667.514 344.062 665.41C344.368 665.176 344.723 665.051 345.086 665.049C345.449 665.048 345.805 665.171 346.111 665.404C346.418 665.637 346.662 665.969 346.816 666.363C346.969 666.756 347.025 667.194 346.978 667.624L346.966 667.716C346.537 667.924 346.12 668.165 345.717 668.436C345.486 668.591 345.26 668.757 345.038 668.931C344.761 669.153 344.545 669.47 344.421 669.841C344.296 670.212 344.268 670.619 344.341 671.009C344.413 671.399 344.582 671.754 344.826 672.027C345.07 672.3 345.377 672.479 345.707 672.539L345.741 672.546C345.765 672.55 345.786 672.554 345.811 672.558C345.078 674.648 344.051 676.572 342.772 678.245C341.525 686.294 336.169 687.058 330.439 684.714H330.435C329.806 687.98 328.896 691.158 327.717 694.199H318.007C317.973 694.07 317.941 693.937 317.91 693.808C318.809 693.876 319.711 693.811 320.597 693.617C319.876 692.56 319.156 691.495 318.435 690.438C318.419 690.419 318.404 690.398 318.39 690.376C318.025 689.835 317.656 689.298 317.29 688.758L317.29 688.757C317.271 687.099 317.43 685.445 317.764 683.836L317.764 683.836Z" fill="#F2F2F2"/>
<path d="M270.247 566.982C270.836 566.56 271.34 565.99 271.727 565.312C272.113 564.633 272.371 563.863 272.484 563.053C272.596 562.244 272.56 561.415 272.379 560.624C272.197 559.832 271.873 559.098 271.431 558.471L282.061 533.253L276.949 528.024L264.506 558.085C263.679 559.054 263.177 560.353 263.097 561.734C263.017 563.116 263.363 564.485 264.071 565.581C264.778 566.678 265.798 567.426 266.936 567.685C268.074 567.943 269.252 567.693 270.247 566.982V566.982Z" fill="#A0616A"/>
<path d="M294.311 462.891L294.844 465.834L293.567 506.979L288.109 523.854L282.548 541.058L281.864 543.177L273.948 556.697L274.713 550.687L268.883 547.505L268.339 547.216L270.441 540.118L275.274 523.809L277.364 516.75L277.817 495.746L278.237 475.889C278.31 472.471 278.976 469.109 280.192 466.015C281.408 462.92 283.148 460.161 285.301 457.912L289.105 453.945C291.368 456.45 293.373 459.632 294.311 462.891Z" fill="#E6E6E6"/>
<path d="M167.143 565.677L141.884 565.033C138.742 565.027 135.73 563.532 133.508 560.876C131.287 558.22 130.037 554.619 130.034 550.863L128.956 519.294C132.058 545.031 143.976 561.357 167.143 565.677Z" fill="#3F3D56"/>
<g clip-path="url(#clip2_0_1)">
<path d="M257.093 524.297H253.712V527.735H257.093V524.297Z" fill="#F0F0F0"/>
<path d="M272.31 491.294C272.312 496.478 271.102 501.567 268.808 506.026C266.514 510.486 263.22 514.151 259.272 516.638C259.049 516.779 258.822 516.916 258.594 517.049C257.749 517.546 256.88 517.985 255.991 518.365C255.637 518.518 255.279 518.661 254.918 518.793C254.883 518.807 254.847 518.821 254.813 518.832C251.274 520.127 247.529 520.498 243.85 519.917C240.171 519.337 236.65 517.82 233.544 515.477C233.127 515.163 232.719 514.835 232.319 514.494C232.094 514.3 231.871 514.103 231.651 513.9C231.029 513.332 230.433 512.73 229.861 512.093C227.429 509.402 225.496 506.173 224.176 502.598C222.857 499.024 222.179 495.179 222.184 491.294C222.184 475.345 233.404 462.417 247.247 462.417C261.089 462.417 272.31 475.345 272.31 491.294Z" fill="#F2F2F2"/>
<path d="M253.232 504.771L252.667 507.232L254.813 518.832C249.046 520.925 242.818 520.556 237.268 517.793L238.943 509.702L238.999 505.313L239.181 490.84L239.227 490.813C239.229 490.811 239.232 490.809 239.236 490.808L243.502 488.284L250.864 488.072L256.357 491.154L256.315 491.334L253.232 504.771Z" fill="#3F3D56"/>
<path d="M256.242 525.918C256.073 525.686 255.95 525.415 255.882 525.122C255.814 524.829 255.803 524.523 255.848 524.225C255.894 523.927 255.996 523.644 256.147 523.396C256.298 523.148 256.494 522.941 256.722 522.79L255.527 515.559L258.592 517.03L259.257 523.672C259.452 524.13 259.494 524.654 259.376 525.145C259.258 525.637 258.987 526.061 258.615 526.338C258.244 526.615 257.797 526.725 257.36 526.648C256.922 526.57 256.525 526.311 256.242 525.918V525.918Z" fill="#9E616A"/>
<path d="M255.25 491.38L256.036 491.085C256.036 491.085 258.531 492.929 258.293 497.389C258.293 497.389 258.387 499.696 258.298 501.232C258.195 502.994 259.568 520.499 259.568 520.499H255.123L253.218 504.647L255.25 491.38Z" fill="#3F3D56"/>
<path d="M252.672 480.159C252.672 481.322 252.372 482.459 251.812 483.426C251.251 484.393 250.454 485.146 249.521 485.591C248.589 486.037 247.563 486.153 246.573 485.926C245.583 485.699 244.674 485.139 243.96 484.317C243.246 483.495 242.76 482.447 242.563 481.306C242.366 480.166 242.467 478.983 242.854 477.909C243.24 476.835 243.894 475.916 244.733 475.27C245.572 474.624 246.559 474.279 247.568 474.279H247.568C248.237 474.277 248.899 474.427 249.517 474.72C250.136 475.013 250.698 475.443 251.172 475.987C251.646 476.53 252.022 477.176 252.279 477.886C252.537 478.597 252.67 479.36 252.672 480.13C252.672 480.14 252.672 480.149 252.672 480.159Z" fill="#FFB8B8"/>
<path d="M242.482 472.261C243.08 470.78 244.237 471.073 245.249 471.575C246.53 471.248 247.748 470.267 249.129 470.847C250.489 473.126 255.054 472.455 254.083 476.165C254.082 477.054 255.535 476.537 255.281 477.993C256.051 480.795 252.503 486.101 250.466 484.984C250.97 483.92 252.12 481.504 250.375 481.264C246.62 485.29 249.987 473.599 245.27 476.999C243.708 478.646 241.569 473.909 242.482 472.261Z" fill="#2F2E41"/>
<path d="M250.291 519.428L242.145 517.569L244.234 505.417C247.116 506.673 249.832 507.293 252.38 507.276C250.153 511.04 249.141 515.081 250.291 519.428Z" fill="#E4E4E4"/>
<path d="M249.107 520.141L240.961 518.282C240.292 512.777 240.9 508.633 243.05 506.131C245.932 507.387 248.647 508.007 251.196 507.99C249.849 511.855 249.141 515.976 249.107 520.141V520.141Z" fill="#FF6584"/>
<path d="M243.71 516.757C243.677 516.456 243.588 516.167 243.449 515.911C243.309 515.654 243.122 515.436 242.901 515.271C242.681 515.107 242.431 515 242.171 514.959C241.911 514.918 241.646 514.942 241.394 515.032L237.611 509.1L236.46 512.688L240.229 517.771C240.387 518.247 240.692 518.64 241.085 518.875C241.477 519.109 241.931 519.17 242.36 519.045C242.789 518.92 243.164 518.618 243.412 518.196C243.661 517.774 243.767 517.262 243.71 516.757Z" fill="#9E616A"/>
<path d="M240.317 491.153L239.632 490.62C239.632 490.62 235.554 491.058 234.715 495.42C234.715 495.42 234.102 498.04 233.82 499.545C233.675 500.319 231.743 507.796 231.743 507.796L238.296 516.047L240.086 512.953L238.296 507.796L240.317 491.153Z" fill="#3F3D56"/>
<path d="M204.953 522.653C204.853 522.653 204.757 522.699 204.686 522.78C204.615 522.862 204.575 522.973 204.575 523.088C204.575 523.204 204.615 523.315 204.686 523.396C204.757 523.478 204.853 523.524 204.953 523.524H232.548C232.648 523.524 232.744 523.478 232.815 523.396C232.885 523.314 232.925 523.204 232.925 523.088C232.925 522.973 232.885 522.862 232.815 522.781C232.744 522.699 232.648 522.653 232.548 522.653H204.953Z" fill="#E4E4E4"/>
<path d="M204.953 525.266C204.903 525.265 204.854 525.277 204.808 525.298C204.762 525.32 204.721 525.352 204.685 525.392C204.65 525.433 204.622 525.481 204.603 525.534C204.584 525.586 204.574 525.643 204.574 525.7C204.574 525.757 204.584 525.814 204.602 525.867C204.621 525.92 204.649 525.968 204.684 526.009C204.719 526.049 204.761 526.081 204.807 526.103C204.853 526.125 204.902 526.137 204.951 526.137H222.397C222.497 526.137 222.594 526.091 222.664 526.009C222.735 525.927 222.775 525.817 222.775 525.701C222.775 525.586 222.735 525.475 222.664 525.393C222.594 525.312 222.497 525.266 222.397 525.266H204.953Z" fill="#E4E4E4"/>
<path d="M199.657 525.961C200.426 525.961 201.05 525.243 201.05 524.357C201.05 523.471 200.426 522.753 199.657 522.753C198.888 522.753 198.265 523.471 198.265 524.357C198.265 525.243 198.888 525.961 199.657 525.961Z" fill="#FF58D0"/>
</g>
</g>
</g>
<defs>
<clipPath id="clip0_0_1">
<rect width="360" height="800" fill="white"/>
</clipPath>
<clipPath id="clip1_0_1">
<rect width="334" height="362" fill="white" transform="translate(13 333)"/>
</clipPath>
<clipPath id="clip2_0_1">
<rect width="92.0472" height="65.3187" fill="white" transform="translate(180.263 462.417)"/>
</clipPath>
</defs>
</svg>
